<mxfile host="app.diagrams.net" modified="2022-02-25T20:49:12.552Z" agent="5.0 (Windows NT 10.0; Win64; x64) AppleWebKit/537.36 (KHTML, like Gecko) Chrome/98.0.4758.102 Safari/537.36" etag="2N_MtsSjVtW_1r8-83qC" version="16.6.4" type="github" pages="2">
  <diagram id="NXdDDToXco_D6gbY6UZC" name="Page-1">
    <mxGraphModel dx="1108" dy="450" grid="1" gridSize="10" guides="1" tooltips="1" connect="1" arrows="1" fold="1" page="0" pageScale="1" pageWidth="850" pageHeight="1100" math="0" shadow="0">
      <root>
        <mxCell id="0" />
        <mxCell id="1" parent="0" />
        <mxCell id="UzB4hfQY8bCyVCNG1F1z-16" value="" style="edgeStyle=orthogonalEdgeStyle;rounded=0;orthogonalLoop=1;jettySize=auto;html=1;entryX=0.5;entryY=0;entryDx=0;entryDy=0;" parent="1" source="UzB4hfQY8bCyVCNG1F1z-1" target="UzB4hfQY8bCyVCNG1F1z-2" edge="1">
          <mxGeometry relative="1" as="geometry">
            <Array as="points">
              <mxPoint x="270" y="130" />
              <mxPoint x="150" y="130" />
            </Array>
          </mxGeometry>
        </mxCell>
        <mxCell id="UzB4hfQY8bCyVCNG1F1z-17" value="" style="edgeStyle=orthogonalEdgeStyle;rounded=0;orthogonalLoop=1;jettySize=auto;html=1;" parent="1" source="UzB4hfQY8bCyVCNG1F1z-1" target="UzB4hfQY8bCyVCNG1F1z-3" edge="1">
          <mxGeometry relative="1" as="geometry" />
        </mxCell>
        <mxCell id="UzB4hfQY8bCyVCNG1F1z-1" value="School" style="rounded=1;whiteSpace=wrap;html=1;" parent="1" vertex="1">
          <mxGeometry x="210" y="50" width="120" height="60" as="geometry" />
        </mxCell>
        <mxCell id="UzB4hfQY8bCyVCNG1F1z-14" value="" style="edgeStyle=orthogonalEdgeStyle;rounded=0;orthogonalLoop=1;jettySize=auto;html=1;" parent="1" source="UzB4hfQY8bCyVCNG1F1z-2" target="UzB4hfQY8bCyVCNG1F1z-4" edge="1">
          <mxGeometry relative="1" as="geometry" />
        </mxCell>
        <mxCell id="UzB4hfQY8bCyVCNG1F1z-15" value="" style="edgeStyle=orthogonalEdgeStyle;rounded=0;orthogonalLoop=1;jettySize=auto;html=1;entryX=0.5;entryY=0;entryDx=0;entryDy=0;" parent="1" source="UzB4hfQY8bCyVCNG1F1z-2" target="UzB4hfQY8bCyVCNG1F1z-6" edge="1">
          <mxGeometry relative="1" as="geometry">
            <Array as="points">
              <mxPoint x="150" y="340" />
              <mxPoint x="370" y="340" />
            </Array>
          </mxGeometry>
        </mxCell>
        <mxCell id="UzB4hfQY8bCyVCNG1F1z-2" value="Teachers" style="rounded=1;whiteSpace=wrap;html=1;" parent="1" vertex="1">
          <mxGeometry x="90" y="160" width="120" height="60" as="geometry" />
        </mxCell>
        <mxCell id="UzB4hfQY8bCyVCNG1F1z-18" value="" style="edgeStyle=orthogonalEdgeStyle;rounded=0;orthogonalLoop=1;jettySize=auto;html=1;" parent="1" source="UzB4hfQY8bCyVCNG1F1z-3" target="UzB4hfQY8bCyVCNG1F1z-5" edge="1">
          <mxGeometry relative="1" as="geometry" />
        </mxCell>
        <mxCell id="UzB4hfQY8bCyVCNG1F1z-19" value="" style="edgeStyle=orthogonalEdgeStyle;rounded=0;orthogonalLoop=1;jettySize=auto;html=1;" parent="1" source="UzB4hfQY8bCyVCNG1F1z-3" target="UzB4hfQY8bCyVCNG1F1z-4" edge="1">
          <mxGeometry relative="1" as="geometry" />
        </mxCell>
        <mxCell id="UzB4hfQY8bCyVCNG1F1z-3" value="Students" style="rounded=1;whiteSpace=wrap;html=1;" parent="1" vertex="1">
          <mxGeometry x="250" y="160" width="120" height="60" as="geometry" />
        </mxCell>
        <mxCell id="UzB4hfQY8bCyVCNG1F1z-4" value="Grades" style="rounded=1;whiteSpace=wrap;html=1;" parent="1" vertex="1">
          <mxGeometry x="180" y="260" width="120" height="50" as="geometry" />
        </mxCell>
        <mxCell id="fiUlolov2Gi9SPY5gAFX-1" style="edgeStyle=orthogonalEdgeStyle;rounded=0;orthogonalLoop=1;jettySize=auto;html=1;entryX=0.75;entryY=0;entryDx=0;entryDy=0;" parent="1" source="UzB4hfQY8bCyVCNG1F1z-5" target="UzB4hfQY8bCyVCNG1F1z-6" edge="1">
          <mxGeometry relative="1" as="geometry" />
        </mxCell>
        <mxCell id="UzB4hfQY8bCyVCNG1F1z-5" value="Parents" style="rounded=1;whiteSpace=wrap;html=1;" parent="1" vertex="1">
          <mxGeometry x="430" y="160" width="120" height="60" as="geometry" />
        </mxCell>
        <mxCell id="UzB4hfQY8bCyVCNG1F1z-6" value="Services" style="swimlane;fontStyle=0;childLayout=stackLayout;horizontal=1;startSize=30;horizontalStack=0;resizeParent=1;resizeParentMax=0;resizeLast=0;collapsible=1;marginBottom=0;" parent="1" vertex="1">
          <mxGeometry x="300" y="360" width="140" height="240" as="geometry" />
        </mxCell>
        <mxCell id="UzB4hfQY8bCyVCNG1F1z-7" value="Communication" style="text;strokeColor=none;fillColor=none;align=left;verticalAlign=middle;spacingLeft=4;spacingRight=4;overflow=hidden;points=[[0,0.5],[1,0.5]];portConstraint=eastwest;rotatable=0;" parent="UzB4hfQY8bCyVCNG1F1z-6" vertex="1">
          <mxGeometry y="30" width="140" height="30" as="geometry" />
        </mxCell>
        <mxCell id="UzB4hfQY8bCyVCNG1F1z-8" value="Set goals" style="text;strokeColor=none;fillColor=none;align=left;verticalAlign=middle;spacingLeft=4;spacingRight=4;overflow=hidden;points=[[0,0.5],[1,0.5]];portConstraint=eastwest;rotatable=0;" parent="UzB4hfQY8bCyVCNG1F1z-6" vertex="1">
          <mxGeometry y="60" width="140" height="30" as="geometry" />
        </mxCell>
        <mxCell id="UzB4hfQY8bCyVCNG1F1z-10" value="Track progress" style="text;strokeColor=none;fillColor=none;align=left;verticalAlign=middle;spacingLeft=4;spacingRight=4;overflow=hidden;points=[[0,0.5],[1,0.5]];portConstraint=eastwest;rotatable=0;" parent="UzB4hfQY8bCyVCNG1F1z-6" vertex="1">
          <mxGeometry y="90" width="140" height="30" as="geometry" />
        </mxCell>
        <mxCell id="UzB4hfQY8bCyVCNG1F1z-11" value="Trouble spots" style="text;strokeColor=none;fillColor=none;align=left;verticalAlign=middle;spacingLeft=4;spacingRight=4;overflow=hidden;points=[[0,0.5],[1,0.5]];portConstraint=eastwest;rotatable=0;" parent="UzB4hfQY8bCyVCNG1F1z-6" vertex="1">
          <mxGeometry y="120" width="140" height="30" as="geometry" />
        </mxCell>
        <mxCell id="UzB4hfQY8bCyVCNG1F1z-12" value="Teacher information" style="text;strokeColor=none;fillColor=none;align=left;verticalAlign=middle;spacingLeft=4;spacingRight=4;overflow=hidden;points=[[0,0.5],[1,0.5]];portConstraint=eastwest;rotatable=0;" parent="UzB4hfQY8bCyVCNG1F1z-6" vertex="1">
          <mxGeometry y="150" width="140" height="30" as="geometry" />
        </mxCell>
        <mxCell id="UzB4hfQY8bCyVCNG1F1z-9" value="Organize academics" style="text;strokeColor=none;fillColor=none;align=left;verticalAlign=middle;spacingLeft=4;spacingRight=4;overflow=hidden;points=[[0,0.5],[1,0.5]];portConstraint=eastwest;rotatable=0;" parent="UzB4hfQY8bCyVCNG1F1z-6" vertex="1">
          <mxGeometry y="180" width="140" height="30" as="geometry" />
        </mxCell>
        <mxCell id="UzB4hfQY8bCyVCNG1F1z-13" value="Celebrate success" style="text;strokeColor=none;fillColor=none;align=left;verticalAlign=middle;spacingLeft=4;spacingRight=4;overflow=hidden;points=[[0,0.5],[1,0.5]];portConstraint=eastwest;rotatable=0;" parent="UzB4hfQY8bCyVCNG1F1z-6" vertex="1">
          <mxGeometry y="210" width="140" height="30" as="geometry" />
        </mxCell>
      </root>
    </mxGraphModel>
  </diagram>
  <diagram id="1r9UJJ_SWWCpA-zr8G72" name="Page-2">
    <mxGraphModel dx="1108" dy="450" grid="1" gridSize="10" guides="1" tooltips="1" connect="1" arrows="1" fold="1" page="1" pageScale="1" pageWidth="850" pageHeight="1100" math="0" shadow="0">
      <root>
        <mxCell id="jcpTW9u_Sn1JXeJbVDP1-0" />
        <mxCell id="jcpTW9u_Sn1JXeJbVDP1-1" parent="jcpTW9u_Sn1JXeJbVDP1-0" />
        <mxCell id="jcpTW9u_Sn1JXeJbVDP1-19" value="School" style="swimlane;childLayout=stackLayout;horizontal=1;startSize=30;horizontalStack=0;rounded=1;fontSize=14;fontStyle=0;strokeWidth=2;resizeParent=0;resizeLast=1;shadow=0;dashed=0;align=center;" parent="jcpTW9u_Sn1JXeJbVDP1-1" vertex="1">
          <mxGeometry x="30" y="130" width="160" height="120" as="geometry" />
        </mxCell>
        <mxCell id="jcpTW9u_Sn1JXeJbVDP1-20" value="ID&#xa;Name&#xa;Teachers" style="align=left;strokeColor=none;fillColor=none;spacingLeft=4;fontSize=12;verticalAlign=top;resizable=0;rotatable=0;part=1;" parent="jcpTW9u_Sn1JXeJbVDP1-19" vertex="1">
          <mxGeometry y="30" width="160" height="90" as="geometry" />
        </mxCell>
        <mxCell id="jcpTW9u_Sn1JXeJbVDP1-22" value="Services" style="swimlane;childLayout=stackLayout;horizontal=1;startSize=30;horizontalStack=0;rounded=1;fontSize=14;fontStyle=0;strokeWidth=2;resizeParent=0;resizeLast=1;shadow=0;dashed=0;align=center;" parent="jcpTW9u_Sn1JXeJbVDP1-1" vertex="1">
          <mxGeometry x="590" y="280" width="160" height="120" as="geometry" />
        </mxCell>
        <mxCell id="jcpTW9u_Sn1JXeJbVDP1-23" value="ID&#xa;Name&#xa;Description&#xa;Service Type&#xa;School" style="align=left;strokeColor=none;fillColor=none;spacingLeft=4;fontSize=12;verticalAlign=top;resizable=0;rotatable=0;part=1;" parent="jcpTW9u_Sn1JXeJbVDP1-22" vertex="1">
          <mxGeometry y="30" width="160" height="90" as="geometry" />
        </mxCell>
        <mxCell id="jcpTW9u_Sn1JXeJbVDP1-24" value="Students" style="swimlane;childLayout=stackLayout;horizontal=1;startSize=30;horizontalStack=0;rounded=1;fontSize=14;fontStyle=0;strokeWidth=2;resizeParent=0;resizeLast=1;shadow=0;dashed=0;align=center;" parent="jcpTW9u_Sn1JXeJbVDP1-1" vertex="1">
          <mxGeometry x="290" y="20" width="160" height="120" as="geometry" />
        </mxCell>
        <mxCell id="jcpTW9u_Sn1JXeJbVDP1-25" value="ID&#xa;Full_name&#xa;Grade&#xa;School&#xa;Parent" style="align=left;strokeColor=none;fillColor=none;spacingLeft=4;fontSize=12;verticalAlign=top;resizable=0;rotatable=0;part=1;" parent="jcpTW9u_Sn1JXeJbVDP1-24" vertex="1">
          <mxGeometry y="30" width="160" height="90" as="geometry" />
        </mxCell>
        <mxCell id="jcpTW9u_Sn1JXeJbVDP1-26" value="Users" style="swimlane;childLayout=stackLayout;horizontal=1;startSize=30;horizontalStack=0;rounded=1;fontSize=14;fontStyle=0;strokeWidth=2;resizeParent=0;resizeLast=1;shadow=0;dashed=0;align=center;" parent="jcpTW9u_Sn1JXeJbVDP1-1" vertex="1">
          <mxGeometry x="280" y="280" width="160" height="120" as="geometry" />
        </mxCell>
        <mxCell id="jcpTW9u_Sn1JXeJbVDP1-27" value="UserID&#xa;Name&#xa;User Type&#xa;Active" style="align=left;strokeColor=none;fillColor=none;spacingLeft=4;fontSize=12;verticalAlign=top;resizable=0;rotatable=0;part=1;" parent="jcpTW9u_Sn1JXeJbVDP1-26" vertex="1">
          <mxGeometry y="30" width="160" height="90" as="geometry" />
        </mxCell>
        <mxCell id="jcpTW9u_Sn1JXeJbVDP1-28" value="Service Events" style="swimlane;childLayout=stackLayout;horizontal=1;startSize=30;horizontalStack=0;rounded=1;fontSize=14;fontStyle=0;strokeWidth=2;resizeParent=0;resizeLast=1;shadow=0;dashed=0;align=center;" parent="jcpTW9u_Sn1JXeJbVDP1-1" vertex="1">
          <mxGeometry x="590" y="80" width="160" height="120" as="geometry" />
        </mxCell>
        <mxCell id="jcpTW9u_Sn1JXeJbVDP1-29" value="ID&#xa;Services&#xa;Name&#xa;Users&#xa;Student" style="align=left;strokeColor=none;fillColor=none;spacingLeft=4;fontSize=12;verticalAlign=top;resizable=0;rotatable=0;part=1;" parent="jcpTW9u_Sn1JXeJbVDP1-28" vertex="1">
          <mxGeometry y="30" width="160" height="90" as="geometry" />
        </mxCell>
        <mxCell id="Nkvwf0CETnE6JZqFJGW4-0" value="" style="edgeStyle=entityRelationEdgeStyle;fontSize=12;html=1;endArrow=ERoneToMany;rounded=0;" edge="1" parent="jcpTW9u_Sn1JXeJbVDP1-1">
          <mxGeometry width="100" height="100" relative="1" as="geometry">
            <mxPoint x="190" y="170" as="sourcePoint" />
            <mxPoint x="290" y="70" as="targetPoint" />
          </mxGeometry>
        </mxCell>
        <mxCell id="Nkvwf0CETnE6JZqFJGW4-1" value="" style="edgeStyle=entityRelationEdgeStyle;fontSize=12;html=1;endArrow=ERoneToMany;rounded=0;exitX=0.363;exitY=0.008;exitDx=0;exitDy=0;exitPerimeter=0;" edge="1" parent="jcpTW9u_Sn1JXeJbVDP1-1" source="jcpTW9u_Sn1JXeJbVDP1-26" target="jcpTW9u_Sn1JXeJbVDP1-25">
          <mxGeometry width="100" height="100" relative="1" as="geometry">
            <mxPoint x="370" y="270" as="sourcePoint" />
            <mxPoint x="390" y="150" as="targetPoint" />
          </mxGeometry>
        </mxCell>
        <mxCell id="Nkvwf0CETnE6JZqFJGW4-3" value="" style="edgeStyle=entityRelationEdgeStyle;fontSize=12;html=1;endArrow=ERoneToMany;rounded=0;entryX=-0.012;entryY=0.433;entryDx=0;entryDy=0;entryPerimeter=0;exitX=0.5;exitY=1;exitDx=0;exitDy=0;" edge="1" parent="jcpTW9u_Sn1JXeJbVDP1-1" source="jcpTW9u_Sn1JXeJbVDP1-20" target="jcpTW9u_Sn1JXeJbVDP1-27">
          <mxGeometry width="100" height="100" relative="1" as="geometry">
            <mxPoint x="80" y="380" as="sourcePoint" />
            <mxPoint x="180" y="280" as="targetPoint" />
          </mxGeometry>
        </mxCell>
        <mxCell id="Nkvwf0CETnE6JZqFJGW4-4" value="" style="edgeStyle=entityRelationEdgeStyle;fontSize=12;html=1;endArrow=ERoneToMany;rounded=0;entryX=0;entryY=0;entryDx=0;entryDy=0;" edge="1" parent="jcpTW9u_Sn1JXeJbVDP1-1" target="jcpTW9u_Sn1JXeJbVDP1-29">
          <mxGeometry width="100" height="100" relative="1" as="geometry">
            <mxPoint x="450" y="59" as="sourcePoint" />
            <mxPoint x="620" y="30" as="targetPoint" />
          </mxGeometry>
        </mxCell>
        <mxCell id="Nkvwf0CETnE6JZqFJGW4-5" value="" style="edgeStyle=entityRelationEdgeStyle;fontSize=12;html=1;endArrow=ERoneToMany;rounded=0;exitX=0.313;exitY=0;exitDx=0;exitDy=0;exitPerimeter=0;" edge="1" parent="jcpTW9u_Sn1JXeJbVDP1-1" source="jcpTW9u_Sn1JXeJbVDP1-22">
          <mxGeometry width="100" height="100" relative="1" as="geometry">
            <mxPoint x="490" y="280" as="sourcePoint" />
            <mxPoint x="590" y="180" as="targetPoint" />
          </mxGeometry>
        </mxCell>
        <mxCell id="Nkvwf0CETnE6JZqFJGW4-6" value="" style="edgeStyle=entityRelationEdgeStyle;fontSize=12;html=1;endArrow=ERoneToMany;rounded=0;exitX=1;exitY=0.5;exitDx=0;exitDy=0;entryX=-0.019;entryY=0.144;entryDx=0;entryDy=0;entryPerimeter=0;" edge="1" parent="jcpTW9u_Sn1JXeJbVDP1-1" source="jcpTW9u_Sn1JXeJbVDP1-20" target="jcpTW9u_Sn1JXeJbVDP1-23">
          <mxGeometry width="100" height="100" relative="1" as="geometry">
            <mxPoint x="310" y="300" as="sourcePoint" />
            <mxPoint x="580" y="300" as="targetPoint" />
          </mxGeometry>
        </mxCell>
        <mxCell id="Nkvwf0CETnE6JZqFJGW4-7" value="" style="edgeStyle=entityRelationEdgeStyle;fontSize=12;html=1;endArrow=ERoneToMany;rounded=0;exitX=0.381;exitY=1.022;exitDx=0;exitDy=0;exitPerimeter=0;" edge="1" parent="jcpTW9u_Sn1JXeJbVDP1-1" source="jcpTW9u_Sn1JXeJbVDP1-25">
          <mxGeometry width="100" height="100" relative="1" as="geometry">
            <mxPoint x="310" y="300" as="sourcePoint" />
            <mxPoint x="270" y="300" as="targetPoint" />
          </mxGeometry>
        </mxCell>
      </root>
    </mxGraphModel>
  </diagram>
</mxfile>
